<?xml version="1.0" standalone="no"?>
<!DOCTYPE svg PUBLIC "-//W3C//DTD SVG 20010904//EN"
 "http://www.w3.org/TR/2001/REC-SVG-20010904/DTD/svg10.dtd">
<svg version="1.0" xmlns="http://www.w3.org/2000/svg"
 width="512.000000pt" height="512.000000pt" viewBox="0 0 512.000000 512.000000"
 preserveAspectRatio="xMidYMid meet">

<g transform="translate(0.000000,512.000000) scale(0.100000,-0.100000)"
fill="#000000" stroke="none">
<path d="M2809 4696 c-1444 -286 -2134 -427 -2153 -439 -70 -46 -85 -133 -37
-208 16 -24 290 -305 610 -624 l581 -580 0 -610 c0 -575 1 -612 19 -645 36
-69 130 -98 198 -62 17 9 133 130 258 267 125 138 238 261 251 275 l24 25 588
-587 c323 -322 602 -594 621 -603 69 -35 157 -5 194 66 22 43 1157 3969 1157
4004 0 73 -78 146 -152 144 -18 -1 -990 -191 -2159 -423z m1456 -25 c-16 -14
-2265 -1551 -2278 -1557 -7 -2 -221 205 -476 460 -369 369 -460 465 -445 469
11 3 309 63 664 133 355 70 1070 211 1590 315 1100 218 956 191 945 180z m-60
-1807 c-240 -830 -438 -1516 -441 -1524 -3 -9 -175 156 -499 480 -272 272
-495 498 -495 502 0 8 1864 2057 1868 2053 2 -1 -193 -681 -433 -1511z m-242
1224 c-11 -13 -429 -473 -928 -1023 -500 -550 -912 -1004 -917 -1009 -4 -6 -8
168 -7 385 l0 394 932 637 c513 350 934 637 936 637 3 1 -5 -9 -16 -21z"/>
<path d="M1039 2091 c-57 -37 -552 -536 -573 -578 -49 -98 22 -213 132 -213
24 0 55 6 70 14 33 18 575 562 591 593 18 35 13 104 -9 141 -46 75 -134 93
-211 43z"/>
<path d="M1145 1344 c-44 -23 -1103 -1082 -1126 -1126 -24 -48 -24 -89 1 -138
23 -45 80 -80 130 -80 17 0 47 9 68 19 46 24 1104 1084 1126 1128 61 123 -78
260 -199 197z"/>
<path d="M1905 1259 c-31 -17 -575 -561 -591 -591 -20 -39 -18 -107 6 -146 46
-75 134 -93 211 -43 57 37 552 536 573 578 50 99 -22 213 -134 213 -25 0 -54
-5 -65 -11z"/>
</g>
</svg>
